<?xml version="1.0" encoding="UTF-8" standalone="no"?>
<!DOCTYPE svg PUBLIC "-//W3C//DTD SVG 1.1//EN"
 "http://www.w3.org/Graphics/SVG/1.1/DTD/svg11.dtd">
<!-- Generated by graphviz version 2.40.1 (20161225.0304)
 -->
<!-- Title: dependencies Pages: 1 -->
<svg width="2237pt" height="284pt"
 viewBox="0.00 0.00 2237.00 284.00" xmlns="http://www.w3.org/2000/svg" xmlns:xlink="http://www.w3.org/1999/xlink">
<g id="graph0" class="graph" transform="scale(1 1) rotate(0) translate(4 280)">
<title>dependencies</title>
<polygon fill="#ffffff" stroke="transparent" points="-4,4 -4,-280 2233,-280 2233,4 -4,4"/>
<text text-anchor="start" x="1093.5091" y="-42.4" font-family="sans-serif" font-weight="bold" font-size="14.00" fill="#000000">Legend</text>
<polygon fill="#ffffb3" stroke="transparent" points="880.5,-10 880.5,-30 900.5,-30 900.5,-10 880.5,-10"/>
<text text-anchor="start" x="904.129" y="-15.4" font-family="sans-serif" font-size="14.00" fill="#000000"> &#160;Declarations</text>
<polygon fill="#8dd3c7" stroke="transparent" points="993.5,-10 993.5,-30 1013.5,-30 1013.5,-10 993.5,-10"/>
<text text-anchor="start" x="1017.2251" y="-15.4" font-family="sans-serif" font-size="14.00" fill="#000000"> &#160;Module</text>
<polygon fill="#80b1d3" stroke="transparent" points="1079.5,-10 1079.5,-30 1099.5,-30 1099.5,-10 1079.5,-10"/>
<text text-anchor="start" x="1103.2812" y="-15.4" font-family="sans-serif" font-size="14.00" fill="#000000"> &#160;Bootstrap</text>
<polygon fill="#fdb462" stroke="transparent" points="1176.5,-10 1176.5,-30 1196.5,-30 1196.5,-10 1176.5,-10"/>
<text text-anchor="start" x="1200.1732" y="-15.4" font-family="sans-serif" font-size="14.00" fill="#000000"> &#160;Providers</text>
<polygon fill="#fb8072" stroke="transparent" points="1272.5,-10 1272.5,-30 1292.5,-30 1292.5,-10 1272.5,-10"/>
<text text-anchor="start" x="1296.2258" y="-15.4" font-family="sans-serif" font-size="14.00" fill="#000000"> &#160;Exports</text>
<g id="clust1" class="cluster">
<title>cluster_AppModule</title>
<polygon fill="none" stroke="#000000" stroke-dasharray="1,5" points="8,-70 8,-268 2221,-268 2221,-70 8,-70"/>
</g>
<g id="clust2" class="cluster">
<title>cluster_AppModule_declarations</title>
<polygon fill="none" stroke="#000000" points="678,-78 678,-130 2213,-130 2213,-78 678,-78"/>
</g>
<g id="clust15" class="cluster">
<title>cluster_AppModule_bootstrap</title>
<polygon fill="none" stroke="#000000" points="1155,-208 1155,-260 1279,-260 1279,-208 1155,-208"/>
</g>
<g id="clust16" class="cluster">
<title>cluster_AppModule_providers</title>
<polygon fill="none" stroke="#000000" points="16,-78 16,-130 670,-130 670,-78 16,-78"/>
</g>
<!-- AppComponent -->
<g id="node1" class="node">
<title>AppComponent</title>
<polygon fill="#ffffb3" stroke="#000000" points="2204.9399,-122 2099.0601,-122 2099.0601,-86 2204.9399,-86 2204.9399,-122"/>
<text text-anchor="middle" x="2152" y="-99.8" font-family="Times,serif" font-size="14.00" fill="#000000">AppComponent</text>
</g>
<!-- AppModule -->
<g id="node11" class="node">
<title>AppModule</title>
<polygon fill="#8dd3c7" stroke="#000000" points="1258.6571,-187 1255.6571,-191 1234.6571,-191 1231.6571,-187 1175.3429,-187 1175.3429,-151 1258.6571,-151 1258.6571,-187"/>
<text text-anchor="middle" x="1217" y="-164.8" font-family="Times,serif" font-size="14.00" fill="#000000">AppModule</text>
</g>
<!-- AppComponent&#45;&gt;AppModule -->
<g id="edge1" class="edge">
<title>AppComponent&#45;&gt;AppModule</title>
<path fill="none" stroke="#000000" d="M2152,-122.0908C2152,-145.1328 2152,-182 2152,-182 2152,-182 1268.6863,-182 1268.6863,-182"/>
<polygon fill="#000000" stroke="#000000" points="1268.6864,-178.5001 1258.6863,-182 1268.6863,-185.5001 1268.6864,-178.5001"/>
</g>
<!-- NavbarComponent -->
<g id="node2" class="node">
<title>NavbarComponent</title>
<polygon fill="#ffffb3" stroke="#000000" points="2081.0297,-122 1958.9703,-122 1958.9703,-86 2081.0297,-86 2081.0297,-122"/>
<text text-anchor="middle" x="2020" y="-99.8" font-family="Times,serif" font-size="14.00" fill="#000000">NavbarComponent</text>
</g>
<!-- NavbarComponent&#45;&gt;AppModule -->
<g id="edge2" class="edge">
<title>NavbarComponent&#45;&gt;AppModule</title>
<path fill="none" stroke="#000000" d="M2020,-122.0449C2020,-143.6623 2020,-177 2020,-177 2020,-177 1268.7616,-177 1268.7616,-177"/>
<polygon fill="#000000" stroke="#000000" points="1268.7616,-173.5001 1258.7616,-177 1268.7616,-180.5001 1268.7616,-173.5001"/>
</g>
<!-- SearchComponent -->
<g id="node3" class="node">
<title>SearchComponent</title>
<polygon fill="#ffffb3" stroke="#000000" points="1940.9201,-122 1821.0799,-122 1821.0799,-86 1940.9201,-86 1940.9201,-122"/>
<text text-anchor="middle" x="1881" y="-99.8" font-family="Times,serif" font-size="14.00" fill="#000000">SearchComponent</text>
</g>
<!-- SearchComponent&#45;&gt;AppModule -->
<g id="edge3" class="edge">
<title>SearchComponent&#45;&gt;AppModule</title>
<path fill="none" stroke="#000000" d="M1881,-122.2228C1881,-142.3652 1881,-172 1881,-172 1881,-172 1268.7877,-172 1268.7877,-172"/>
<polygon fill="#000000" stroke="#000000" points="1268.7877,-168.5001 1258.7877,-172 1268.7877,-175.5001 1268.7877,-168.5001"/>
</g>
<!-- TrendingComponent -->
<g id="node4" class="node">
<title>TrendingComponent</title>
<polygon fill="#ffffb3" stroke="#000000" points="1803.1513,-122 1670.8487,-122 1670.8487,-86 1803.1513,-86 1803.1513,-122"/>
<text text-anchor="middle" x="1737" y="-99.8" font-family="Times,serif" font-size="14.00" fill="#000000">TrendingComponent</text>
</g>
<!-- TrendingComponent&#45;&gt;AppModule -->
<g id="edge4" class="edge">
<title>TrendingComponent&#45;&gt;AppModule</title>
<path fill="none" stroke="#000000" d="M1737,-122.2222C1737,-140.8285 1737,-167 1737,-167 1737,-167 1268.6748,-167 1268.6748,-167"/>
<polygon fill="#000000" stroke="#000000" points="1268.6748,-163.5001 1258.6748,-167 1268.6747,-170.5001 1268.6748,-163.5001"/>
</g>
<!-- TreeComponent -->
<g id="node5" class="node">
<title>TreeComponent</title>
<polygon fill="#ffffb3" stroke="#000000" points="1652.4748,-122 1545.5252,-122 1545.5252,-86 1652.4748,-86 1652.4748,-122"/>
<text text-anchor="middle" x="1599" y="-99.8" font-family="Times,serif" font-size="14.00" fill="#000000">TreeComponent</text>
</g>
<!-- TreeComponent&#45;&gt;AppModule -->
<g id="edge5" class="edge">
<title>TreeComponent&#45;&gt;AppModule</title>
<path fill="none" stroke="#000000" d="M1599,-122.0336C1599,-139.0597 1599,-162 1599,-162 1599,-162 1268.9734,-162 1268.9734,-162"/>
<polygon fill="#000000" stroke="#000000" points="1268.9734,-158.5001 1258.9734,-162 1268.9734,-165.5001 1268.9734,-158.5001"/>
</g>
<!-- SummaryComponent -->
<g id="node6" class="node">
<title>SummaryComponent</title>
<polygon fill="#ffffb3" stroke="#000000" points="1527.7716,-122 1392.2284,-122 1392.2284,-86 1527.7716,-86 1527.7716,-122"/>
<text text-anchor="middle" x="1460" y="-99.8" font-family="Times,serif" font-size="14.00" fill="#000000">SummaryComponent</text>
</g>
<!-- SummaryComponent&#45;&gt;AppModule -->
<g id="edge6" class="edge">
<title>SummaryComponent&#45;&gt;AppModule</title>
<path fill="none" stroke="#000000" d="M1460,-122.2396C1460,-137.5706 1460,-157 1460,-157 1460,-157 1268.7732,-157 1268.7732,-157"/>
<polygon fill="#000000" stroke="#000000" points="1268.7732,-153.5001 1258.7732,-157 1268.7732,-160.5001 1268.7732,-153.5001"/>
</g>
<!-- TreeNodeComponent -->
<g id="node7" class="node">
<title>TreeNodeComponent</title>
<polygon fill="#ffffb3" stroke="#000000" points="1373.7963,-122 1236.2037,-122 1236.2037,-86 1373.7963,-86 1373.7963,-122"/>
<text text-anchor="middle" x="1305" y="-99.8" font-family="Times,serif" font-size="14.00" fill="#000000">TreeNodeComponent</text>
</g>
<!-- TreeNodeComponent&#45;&gt;AppModule -->
<g id="edge7" class="edge">
<title>TreeNodeComponent&#45;&gt;AppModule</title>
<path fill="none" stroke="#000000" d="M1247.5901,-122.1061C1247.5901,-122.1061 1247.5901,-140.991 1247.5901,-140.991"/>
<polygon fill="#000000" stroke="#000000" points="1244.0902,-140.9909 1247.5901,-150.991 1251.0902,-140.991 1244.0902,-140.9909"/>
</g>
<!-- TreeNodeMobileComponent -->
<g id="node8" class="node">
<title>TreeNodeMobileComponent</title>
<polygon fill="#ffffb3" stroke="#000000" points="1217.7366,-122 1040.2634,-122 1040.2634,-86 1217.7366,-86 1217.7366,-122"/>
<text text-anchor="middle" x="1129" y="-99.8" font-family="Times,serif" font-size="14.00" fill="#000000">TreeNodeMobileComponent</text>
</g>
<!-- TreeNodeMobileComponent&#45;&gt;AppModule -->
<g id="edge8" class="edge">
<title>TreeNodeMobileComponent&#45;&gt;AppModule</title>
<path fill="none" stroke="#000000" d="M1196.52,-122.1061C1196.52,-122.1061 1196.52,-140.991 1196.52,-140.991"/>
<polygon fill="#000000" stroke="#000000" points="1193.0201,-140.9909 1196.52,-150.991 1200.0201,-140.991 1193.0201,-140.9909"/>
</g>
<!-- TreeNodeExpandedComponent -->
<g id="node9" class="node">
<title>TreeNodeExpandedComponent</title>
<polygon fill="#ffffb3" stroke="#000000" points="1021.778,-122 828.222,-122 828.222,-86 1021.778,-86 1021.778,-122"/>
<text text-anchor="middle" x="925" y="-99.8" font-family="Times,serif" font-size="14.00" fill="#000000">TreeNodeExpandedComponent</text>
</g>
<!-- TreeNodeExpandedComponent&#45;&gt;AppModule -->
<g id="edge9" class="edge">
<title>TreeNodeExpandedComponent&#45;&gt;AppModule</title>
<path fill="none" stroke="#000000" d="M925,-122.2396C925,-137.5706 925,-157 925,-157 925,-157 1165.1635,-157 1165.1635,-157"/>
<polygon fill="#000000" stroke="#000000" points="1165.1636,-160.5001 1175.1635,-157 1165.1635,-153.5001 1165.1636,-160.5001"/>
</g>
<!-- TagCloudDirective -->
<g id="node10" class="node">
<title>TagCloudDirective</title>
<polygon fill="#ffffb3" stroke="#000000" points="810.0772,-122 685.9228,-122 685.9228,-86 810.0772,-86 810.0772,-122"/>
<text text-anchor="middle" x="748" y="-99.8" font-family="Times,serif" font-size="14.00" fill="#000000">TagCloudDirective</text>
</g>
<!-- TagCloudDirective&#45;&gt;AppModule -->
<g id="edge10" class="edge">
<title>TagCloudDirective&#45;&gt;AppModule</title>
<path fill="none" stroke="#000000" d="M748,-122.0336C748,-139.0597 748,-162 748,-162 748,-162 1164.9666,-162 1164.9666,-162"/>
<polygon fill="#000000" stroke="#000000" points="1164.9667,-165.5001 1174.9666,-162 1164.9666,-158.5001 1164.9667,-165.5001"/>
</g>
<!-- AppComponent  -->
<g id="node12" class="node">
<title>AppComponent </title>
<polygon fill="#80b1d3" stroke="#000000" points="1271.439,-252 1162.561,-252 1162.561,-216 1271.439,-216 1271.439,-252"/>
<text text-anchor="middle" x="1217" y="-229.8" font-family="Times,serif" font-size="14.00" fill="#000000">AppComponent </text>
</g>
<!-- AppModule&#45;&gt;AppComponent  -->
<g id="edge11" class="edge">
<title>AppModule&#45;&gt;AppComponent </title>
<path fill="none" stroke="#000000" stroke-dasharray="1,5" d="M1217,-187.1061C1217,-187.1061 1217,-205.991 1217,-205.991"/>
<polygon fill="#000000" stroke="#000000" points="1213.5001,-205.9909 1217,-215.991 1220.5001,-205.991 1213.5001,-205.9909"/>
</g>
<!-- CommunicationService -->
<g id="node13" class="node">
<title>CommunicationService</title>
<ellipse fill="#fdb462" stroke="#000000" cx="560" cy="-104" rx="102.4468" ry="18"/>
<text text-anchor="middle" x="560" y="-99.8" font-family="Times,serif" font-size="14.00" fill="#000000">CommunicationService</text>
</g>
<!-- CommunicationService&#45;&gt;AppModule -->
<g id="edge12" class="edge">
<title>CommunicationService&#45;&gt;AppModule</title>
<path fill="none" stroke="#000000" d="M560,-122.2222C560,-140.8285 560,-167 560,-167 560,-167 1165.1531,-167 1165.1531,-167"/>
<polygon fill="#000000" stroke="#000000" points="1165.1531,-170.5001 1175.1531,-167 1165.1531,-163.5001 1165.1531,-170.5001"/>
</g>
<!-- ApiService -->
<g id="node14" class="node">
<title>ApiService</title>
<ellipse fill="#fdb462" stroke="#000000" cx="385" cy="-104" rx="54.4508" ry="18"/>
<text text-anchor="middle" x="385" y="-99.8" font-family="Times,serif" font-size="14.00" fill="#000000">ApiService</text>
</g>
<!-- ApiService&#45;&gt;AppModule -->
<g id="edge13" class="edge">
<title>ApiService&#45;&gt;AppModule</title>
<path fill="none" stroke="#000000" d="M385,-122.2228C385,-142.3652 385,-172 385,-172 385,-172 1165.1708,-172 1165.1708,-172"/>
<polygon fill="#000000" stroke="#000000" points="1165.1708,-175.5001 1175.1708,-172 1165.1708,-168.5001 1165.1708,-175.5001"/>
</g>
<!-- TreeService -->
<g id="node15" class="node">
<title>TreeService</title>
<ellipse fill="#fdb462" stroke="#000000" cx="255" cy="-104" rx="57.8597" ry="18"/>
<text text-anchor="middle" x="255" y="-99.8" font-family="Times,serif" font-size="14.00" fill="#000000">TreeService</text>
</g>
<!-- TreeService&#45;&gt;AppModule -->
<g id="edge14" class="edge">
<title>TreeService&#45;&gt;AppModule</title>
<path fill="none" stroke="#000000" d="M255,-122.0449C255,-143.6623 255,-177 255,-177 255,-177 1165.0455,-177 1165.0455,-177"/>
<polygon fill="#000000" stroke="#000000" points="1165.0455,-180.5001 1175.0455,-177 1165.0454,-173.5001 1165.0455,-180.5001"/>
</g>
<!-- SummaryService -->
<g id="node16" class="node">
<title>SummaryService</title>
<ellipse fill="#fdb462" stroke="#000000" cx="102" cy="-104" rx="77.5859" ry="18"/>
<text text-anchor="middle" x="102" y="-99.8" font-family="Times,serif" font-size="14.00" fill="#000000">SummaryService</text>
</g>
<!-- SummaryService&#45;&gt;AppModule -->
<g id="edge15" class="edge">
<title>SummaryService&#45;&gt;AppModule</title>
<path fill="none" stroke="#000000" d="M102,-122.0908C102,-145.1328 102,-182 102,-182 102,-182 1165.3257,-182 1165.3257,-182"/>
<polygon fill="#000000" stroke="#000000" points="1165.3257,-185.5001 1175.3257,-182 1165.3256,-178.5001 1165.3257,-185.5001"/>
</g>
</g>
</svg>
